<svg width="36" height="40" viewBox="0 0 36 40" fill="none" xmlns="http://www.w3.org/2000/svg">
<path d="M2 13.4545L12.3267 8.70189C12.4719 8.63507 12.484 8.43335 12.3477 8.34975L2.3046 2.18692C2.17134 2.10514 2 2.20103 2 2.35738V13.4545ZM2 13.4545V23.2727M23.3333 24.9091V13.7668C23.3333 13.6209 23.4844 13.5241 23.6169 13.5851L33.6601 18.2072C33.8053 18.274 33.8173 18.4757 33.6811 18.5593L23.3333 24.9091ZM23.3333 24.9091V29.8182M2 18.3636L23.3333 29.8182M23.3333 29.8182V34.7273M2 26.5455V37.6108C2 37.7736 2.18407 37.8682 2.31642 37.7735L11.1429 31.4545M2 26.5455L11.1429 31.4545M2 26.5455V23.2727M11.1429 31.4545L23.0387 37.8418C23.172 37.9134 23.3333 37.8168 23.3333 37.6656V34.7273M2 23.2727L23.3333 34.7273" stroke="white" stroke-width="3"/>
</svg>
